<?xml version="1.0" standalone="no"?><!DOCTYPE svg PUBLIC "-//W3C//DTD SVG 1.1//EN" "http://www.w3.org/Graphics/SVG/1.1/DTD/svg11.dtd"><svg t="1682342553949" class="icon" viewBox="0 0 1024 1024" version="1.1" xmlns="http://www.w3.org/2000/svg" p-id="3252" xmlns:xlink="http://www.w3.org/1999/xlink" width="16" height="16"><path d="M616.584533 85.333333H204.8a68.266667 68.266667 0 0 0-68.266667 68.266667v716.8a68.266667 68.266667 0 0 0 68.266667 68.266667h614.4a68.266667 68.266667 0 0 0 68.266667-68.266667V371.797333a68.266667 68.266667 0 0 0-18.244267-46.4384L666.624 107.144533A68.266667 68.266667 0 0 0 616.584533 85.333333zM204.8 153.6h411.784533L819.2 371.797333V870.4H204.8V153.6z" fill="#444444" p-id="3253"></path><path d="M580.266667 85.333333a34.133333 34.133333 0 0 1 34.048 31.573334L614.4 119.466667v238.933333h238.933333a34.133333 34.133333 0 0 1 2.56 68.181333L853.333333 426.666667H614.4a68.266667 68.266667 0 0 1-68.181333-64.853334L546.133333 358.4V119.466667a34.133333 34.133333 0 0 1 34.133334-34.133334z" fill="#444444" p-id="3254"></path><path d="M477.866667 460.8v136.533333h136.533333v68.266667h-136.533333v136.533333h-68.266667v-136.533333h-136.533333v-68.266667h136.533333v-136.533333h68.266667z" fill="#00B386" p-id="3255"></path></svg>